<svg id="logo" data-name="logo" xmlns="http://www.w3.org/2000/svg" width="500" height="90" viewBox="0 0 500 90">
  <defs>
    <style>
      .cls-1 {
        fill: #2a2a2a;
      }
      .cls-2 {
        fill: #0eb977;
      }
    </style>
  </defs>
  <path id="Nutricare" class="cls-1" d="M165.2,74.725V28.446a9.3,9.3,0,0,1,.3-2.653,3.487,3.487,0,0,1,.853-1.516,2.689,2.689,0,0,1,1.269-.7,6.556,6.556,0,0,1,1.516-.171H172.4V19.311H152.129V23.4h3.259a6.554,6.554,0,0,1,1.515.171,2.869,2.869,0,0,1,1.27.663,3.338,3.338,0,0,1,.871,1.421,7.778,7.778,0,0,1,.322,2.483V58.048l-27.4-38.737H114.729V23.4h3.259a6.569,6.569,0,0,1,1.516.171,2.871,2.871,0,0,1,1.269.663,3.328,3.328,0,0,1,.871,1.421,7.775,7.775,0,0,1,.323,2.483v37.41a9.326,9.326,0,0,1-.3,2.653,3.488,3.488,0,0,1-.852,1.516,2.7,2.7,0,0,1-1.27.7,6.729,6.729,0,0,1-1.553.171h-3.259v4.131H135V70.594h-3.259a6.805,6.805,0,0,1-1.535-.171,2.575,2.575,0,0,1-1.269-.7,3.758,3.758,0,0,1-.853-1.516,8.8,8.8,0,0,1-.322-2.653V31.971L158.04,74.725H165.2Zm58.354,0V70.594h-0.644a15.007,15.007,0,0,1-2.084-.133,3.57,3.57,0,0,1-1.629-.625,3.277,3.277,0,0,1-1.08-1.459,7.2,7.2,0,0,1-.4-2.672v-32.6H200.1v4.131h0.227a16.83,16.83,0,0,1,2.16.133,4.076,4.076,0,0,1,1.781.644,3.547,3.547,0,0,1,1.213,1.5,6.542,6.542,0,0,1,.454,2.691V57.1a27.4,27.4,0,0,1-.4,4.908,12.1,12.1,0,0,1-1.25,3.715,6.173,6.173,0,0,1-2.2,2.35,6.059,6.059,0,0,1-3.2.815,4.921,4.921,0,0,1-2.842-.777,5.436,5.436,0,0,1-1.819-2.2,11.766,11.766,0,0,1-.966-3.43,32.482,32.482,0,0,1-.284-4.51V33.108H175.736v4.131h0.152a11.044,11.044,0,0,1,2.406.227,3.472,3.472,0,0,1,1.648.834,3.588,3.588,0,0,1,.947,1.668,10.356,10.356,0,0,1,.3,2.767v17.4q0,7.846,3.24,11.6t9.3,3.752a27.087,27.087,0,0,0,3.543-.227,12.488,12.488,0,0,0,3.278-.891,10.491,10.491,0,0,0,2.917-1.9,13.486,13.486,0,0,0,2.539-3.241h0.379l1.705,5.5h15.46ZM245.932,67.6a8.811,8.811,0,0,1-1.194-5.155V38.414h9.928V33.108h-9.928V23.48H238.3q-1.174,5.193-3.561,7.694a10.633,10.633,0,0,1-3.146,2.274,9.853,9.853,0,0,1-4.471.986v3.98h5.836V63.24a17.954,17.954,0,0,0,.795,5.742,9.569,9.569,0,0,0,2.274,3.79,8.409,8.409,0,0,0,3.6,2.085,16.723,16.723,0,0,0,4.736.625,35.213,35.213,0,0,0,3.789-.19q1.743-.19,3.127-0.474a22.4,22.4,0,0,0,2.425-.625,12.5,12.5,0,0,0,1.648-.644V68.509q-1.214.3-2.6,0.512a19.405,19.405,0,0,1-2.9.209A4.534,4.534,0,0,1,245.932,67.6Zm38.442,2.994h-2.5a12.783,12.783,0,0,1-2.141-.171,3.968,3.968,0,0,1-1.724-.7,3.506,3.506,0,0,1-1.137-1.573,7.526,7.526,0,0,1-.417-2.748V51.983q0-.91.076-2.16a22.712,22.712,0,0,1,.322-2.634,21.19,21.19,0,0,1,.682-2.748A10.561,10.561,0,0,1,278.652,42a6.022,6.022,0,0,1,1.667-1.762,4.025,4.025,0,0,1,2.35-.682,3.694,3.694,0,0,1,1.837.417,3.024,3.024,0,0,1,1.175,1.213,5.89,5.89,0,0,1,.606,2.009,20.319,20.319,0,0,1,.171,2.8q4.7,0,7.275-1.971a6.565,6.565,0,0,0,2.577-5.534,5.48,5.48,0,0,0-2.16-4.681Q291.99,32.2,287.4,32.2a16.966,16.966,0,0,0-4.111.436,9.239,9.239,0,0,0-2.994,1.308,8.529,8.529,0,0,0-2.179,2.179,17.7,17.7,0,0,0-1.667,3.051h-0.379l-1.553-6.064H258.834v4.131h0.227a14.153,14.153,0,0,1,2.312.171,3.885,3.885,0,0,1,1.762.739,3.587,3.587,0,0,1,1.137,1.611,7.864,7.864,0,0,1,.4,2.748V65.022a8.084,8.084,0,0,1-.436,2.918A3.744,3.744,0,0,1,263,69.627a4.387,4.387,0,0,1-1.894.777,14.282,14.282,0,0,1-2.425.189h-0.228v4.131h25.919V70.594Zm20.291-47.568a4.758,4.758,0,0,0,1.4,1.744,6.171,6.171,0,0,0,2.084,1.023,9.83,9.83,0,0,0,5.135,0,6.383,6.383,0,0,0,2.122-1.023,5.036,5.036,0,0,0,1.458-1.744,5.374,5.374,0,0,0,.55-2.5,5.465,5.465,0,0,0-.55-2.539,4.864,4.864,0,0,0-1.458-1.725,6.334,6.334,0,0,0-2.122-.985,10.39,10.39,0,0,0-5.135,0,6.12,6.12,0,0,0-2.084.985,4.6,4.6,0,0,0-1.4,1.725,5.8,5.8,0,0,0-.511,2.539A5.7,5.7,0,0,0,304.665,23.026Zm-5.854,47.568v4.131h24.668V70.594h-0.91a10.719,10.719,0,0,1-1.819-.171,4.724,4.724,0,0,1-1.8-.7,4.19,4.19,0,0,1-1.365-1.516,5.458,5.458,0,0,1-.549-2.653V33.108H298.811v4.131h0.909a11.709,11.709,0,0,1,1.8.152,4.85,4.85,0,0,1,1.8.663,4.111,4.111,0,0,1,1.383,1.44,4.859,4.859,0,0,1,.549,2.483V65.553a5.458,5.458,0,0,1-.549,2.653,4.206,4.206,0,0,1-1.364,1.516,4.738,4.738,0,0,1-1.781.7,10.587,10.587,0,0,1-1.838.171h-0.909Zm55.664,4.112a15.933,15.933,0,0,0,4.679-2.009,8.476,8.476,0,0,0,2.71-2.748,5.975,5.975,0,0,0,.871-2.994,4.71,4.71,0,0,0-.454-2.028,3.506,3.506,0,0,0-1.4-1.535,11,11,0,0,1-1.762,2.483,11.317,11.317,0,0,1-2.52,2.009,12.755,12.755,0,0,1-3.2,1.327,14.456,14.456,0,0,1-3.77.474,7.437,7.437,0,0,1-7.048-3.9q-2.16-3.9-2.16-11.788a55.4,55.4,0,0,1,.511-8.263,18.7,18.7,0,0,1,1.478-5.269,6.444,6.444,0,0,1,2.311-2.786,5.774,5.774,0,0,1,3.051-.815,3.661,3.661,0,0,1,2.444.815,5.6,5.6,0,0,1,1.534,2.179,12.716,12.716,0,0,1,.815,3.184,28.578,28.578,0,0,1,.246,3.828,18.2,18.2,0,0,0,4.983-.569,8.7,8.7,0,0,0,3.07-1.478,4.855,4.855,0,0,0,1.553-2.1,7.091,7.091,0,0,0,.436-2.445,5.65,5.65,0,0,0-1-3.2,8.51,8.51,0,0,0-2.937-2.6,17.085,17.085,0,0,0-4.812-1.725,31.46,31.46,0,0,0-6.631-.625,25.225,25.225,0,0,0-7.5,1.08,14.568,14.568,0,0,0-6.044,3.62,17.333,17.333,0,0,0-4.017,6.747,32.427,32.427,0,0,0-1.458,10.5,31.249,31.249,0,0,0,1.4,10.044,16.982,16.982,0,0,0,3.94,6.633,14.556,14.556,0,0,0,6.082,3.639,26.325,26.325,0,0,0,7.825,1.1A25.971,25.971,0,0,0,354.475,74.706ZM381.644,59.45a6.605,6.605,0,0,1,1.364-2.691,6.329,6.329,0,0,1,2.539-1.725,12.39,12.39,0,0,1,3.9-.739l3.487-.227v5.837a15.334,15.334,0,0,1-.512,4.112,9.317,9.317,0,0,1-1.478,3.127,6.8,6.8,0,0,1-2.311,1.99,6.414,6.414,0,0,1-3.013.7,3.664,3.664,0,0,1-3.334-1.668,9.443,9.443,0,0,1-1.061-5A14.7,14.7,0,0,1,381.644,59.45ZM390.681,37.5a3.971,3.971,0,0,1,1.459,1.819,9.569,9.569,0,0,1,.644,2.8q0.151,1.63.152,3.563v4.283l-6.366.227q-8.716.265-13.054,3.3t-4.339,9.362a15.025,15.025,0,0,0,.947,5.591,10.991,10.991,0,0,0,2.6,3.942,10.393,10.393,0,0,0,3.865,2.331,14.723,14.723,0,0,0,4.793.758,17.669,17.669,0,0,0,3.809-.36,9.965,9.965,0,0,0,2.9-1.118,11.746,11.746,0,0,0,2.425-1.914q1.137-1.156,2.426-2.71h0.682l1.629,5.344h14.437V70.594h-0.3a7.921,7.921,0,0,1-2.2-.265,2.9,2.9,0,0,1-1.44-.891,3.941,3.941,0,0,1-.777-1.687,12,12,0,0,1-.246-2.653V45.312a16.407,16.407,0,0,0-1.023-6.159,9.542,9.542,0,0,0-3.05-4.075,13.051,13.051,0,0,0-5.078-2.255,32.173,32.173,0,0,0-7.143-.7,41.75,41.75,0,0,0-6.195.436,20.33,20.33,0,0,0-5.078,1.383,9.162,9.162,0,0,0-3.448,2.464,5.485,5.485,0,0,0-1.269,3.639,4.09,4.09,0,0,0,2.633,4.018,20.183,20.183,0,0,0,7.863,1.175,21.254,21.254,0,0,1,.246-3.354,8.3,8.3,0,0,1,.853-2.653A4.927,4.927,0,0,1,390.681,37.5Zm48.976,33.089h-2.5a12.783,12.783,0,0,1-2.141-.171,3.978,3.978,0,0,1-1.724-.7,3.506,3.506,0,0,1-1.137-1.573,7.526,7.526,0,0,1-.417-2.748V51.983q0-.91.076-2.16a23.156,23.156,0,0,1,.322-2.634,21.353,21.353,0,0,1,.682-2.748A10.645,10.645,0,0,1,433.935,42a6.012,6.012,0,0,1,1.668-1.762,4.019,4.019,0,0,1,2.349-.682,3.7,3.7,0,0,1,1.838.417,3.022,3.022,0,0,1,1.174,1.213,5.912,5.912,0,0,1,.607,2.009,20.49,20.49,0,0,1,.17,2.8q4.7,0,7.275-1.971a6.565,6.565,0,0,0,2.577-5.534,5.48,5.48,0,0,0-2.16-4.681q-2.16-1.611-6.745-1.611a16.966,16.966,0,0,0-4.111.436,9.234,9.234,0,0,0-2.993,1.308,8.5,8.5,0,0,0-2.179,2.179,17.7,17.7,0,0,0-1.668,3.051h-0.378l-1.554-6.064H414.117v4.131h0.228a14.149,14.149,0,0,1,2.311.171,3.881,3.881,0,0,1,1.762.739,3.579,3.579,0,0,1,1.137,1.611,7.864,7.864,0,0,1,.4,2.748V65.022a8.084,8.084,0,0,1-.436,2.918,3.75,3.75,0,0,1-1.231,1.687,4.4,4.4,0,0,1-1.895.777,14.282,14.282,0,0,1-2.425.189h-0.227v4.131h25.918V70.594Zm38.972-32.558a6.317,6.317,0,0,1,1.895,2.5,14.823,14.823,0,0,1,1.08,3.98,37.272,37.272,0,0,1,.341,5.306H468.531q0.189-6.216,2.1-9.438a5.809,5.809,0,0,1,5.172-3.222A4.552,4.552,0,0,1,478.629,38.035Zm4.7,36.766a16.859,16.859,0,0,0,4.756-1.819,7.991,7.991,0,0,0,2.8-2.634,6,6,0,0,0,.909-3.165,3.975,3.975,0,0,0-2.084-3.79,11.7,11.7,0,0,1-1.724,2.483,11.042,11.042,0,0,1-2.425,2.009,11.949,11.949,0,0,1-3.088,1.327,13.821,13.821,0,0,1-3.714.474,10.093,10.093,0,0,1-4.3-.872,8.1,8.1,0,0,1-3.183-2.691,13.988,13.988,0,0,1-2.046-4.624,29.994,29.994,0,0,1-.852-6.709h25.425v-3.98a23.994,23.994,0,0,0-1.25-8.111,15.538,15.538,0,0,0-3.6-5.837,15.073,15.073,0,0,0-5.722-3.544,24.721,24.721,0,0,0-15.744.189,15.388,15.388,0,0,0-6.044,4.15,18.482,18.482,0,0,0-3.751,6.9,32.271,32.271,0,0,0-1.289,9.59,29.186,29.186,0,0,0,1.289,9.04,17.679,17.679,0,0,0,3.827,6.69,16.5,16.5,0,0,0,6.309,4.169,24.271,24.271,0,0,0,8.7,1.44A29.651,29.651,0,0,0,483.328,74.8Z" transform="translate(-0.938 -0.406)"/>
  <path class="cls-2" d="M88.835,35.064A42.588,42.588,0,0,0,75.555,12.15,43.718,43.718,0,0,0,46.534.426,42.979,42.979,0,0,0,34.1,1.883a44.4,44.4,0,0,0-18.749,10.28c-0.349.318-.317,0.465,0.038,0.727q1.862,1.372,3.686,2.8a0.451,0.451,0,0,0,.7-0.044,36.326,36.326,0,0,1,8.506-5.65,38.714,38.714,0,0,1,11.99-3.5A37.057,37.057,0,0,1,56.653,8.18,37.51,37.51,0,1,1,21.431,73.158a55.357,55.357,0,0,1-8.5-8.86A26.5,26.5,0,0,1,6.712,49.145a7.863,7.863,0,0,0-.424-2.625A40.714,40.714,0,0,1,2.838,32.406a0.648,0.648,0,0,0-.089.115c-0.036.1-.069,0.2-0.1,0.3a44.068,44.068,0,0,0-.579,21.894A43.118,43.118,0,0,0,16.887,78.987c10.908,9.021,23.446,12.2,37.327,9.55a42.3,42.3,0,0,0,25.3-15.011C88.814,62.256,91.887,49.338,88.835,35.064ZM14.127,56.74a0.532,0.532,0,0,0,.289.271c0.064-.128.121-0.235,0.171-0.346a47.14,47.14,0,0,0,4.072-15.249A45.5,45.5,0,0,0,17.7,26.793a14.733,14.733,0,0,1-.53-2.169,13.241,13.241,0,0,1,2.081,2.683,28.714,28.714,0,0,1,4.106,12.623A51.788,51.788,0,0,1,22.659,55c-0.116.619-.237,1.236-0.355,1.855l0.124,0.069a1.008,1.008,0,0,1,.1-0.185,49.293,49.293,0,0,0,4.895-6.765,28.718,28.718,0,0,0,4.393-12.9A16.441,16.441,0,0,0,25.33,22.322c-2.673-2.1-5.515-3.976-8.234-6.016-1.982-1.487-4.124-2.814-5.519-4.962-0.234-.36-0.315-0.052-0.4.113-0.65,1.2-1.3,2.4-1.94,3.609-0.931,1.765-2.034,3.45-2.783,5.3A28.821,28.821,0,0,0,5.119,37.146,48.639,48.639,0,0,0,14.127,56.74Zm18.267-9.619a14.624,14.624,0,0,0-2.329,4.035c0.12-.1.241-0.2,0.359-0.3a29.848,29.848,0,0,1,7.494-4.8,19.844,19.844,0,0,1,11.26-1.81,19.621,19.621,0,0,1,13.681,8.682,16.245,16.245,0,0,1,2.772,11.644A22,22,0,0,1,60.7,75.446a0.788,0.788,0,0,0,.6-0.223A37.7,37.7,0,0,0,74.693,62.489a1.994,1.994,0,0,0,.327-1.132,26.947,26.947,0,0,0-2.363-10.433,76.711,76.711,0,0,0-5.679-10.408c-1.6-2.591-3.32-5.116-4.7-7.84-2.168-4.274-3.636-8.732-3.438-13.6a14.63,14.63,0,0,1,2.239-7.564c0.043-.065.127-0.13,0.025-0.243a10.568,10.568,0,0,0-1.9,1.72,18.3,18.3,0,0,0-4.361,11.941A33.8,33.8,0,0,0,56.465,35.85c0.244,0.811.514,1.614,0.779,2.442-0.333,0-.613.008-0.892,0a38.711,38.711,0,0,0-12.977,1.6A21.908,21.908,0,0,0,32.394,47.121ZM27.772,67.9c0.12,0.072.24,0.143,0.365,0.206a21.7,21.7,0,0,0,13.735,2.031,24.766,24.766,0,0,0,10.887-4.957,37.144,37.144,0,0,0,5.619-5.36,0.965,0.965,0,0,0-.195-0.1,20.449,20.449,0,0,1-6.351-2.549c-1.681-.949-3.2-2.155-4.851-3.142A16.026,16.026,0,0,0,39.5,51.49a12.021,12.021,0,0,0-7.63,2.378,27.248,27.248,0,0,0-7.1,7.948l-0.014.023a0.107,0.107,0,0,0,.034.155h0a30.766,30.766,0,0,1,11.6-3.919l0.079-.01q0.4-.05.794-0.089l0.352-.033q0.578-.05,1.136-0.078,0.284-.014.561-0.022h0.037q0.3-.008.589-0.011H40.24q0.744,0,1.436.043,0.276,0.016.543,0.037t0.523,0.048q0.257,0.027.5,0.058t0.482,0.067c0.549,0.084,1.053.185,1.506,0.3-6.881,1.278-12.889,4.086-17.552,9.4A0.572,0.572,0,0,0,27.772,67.9Zm5.381-6.651c0.627-.286,1.273-0.532,1.91-0.8-6.079.524-10.125,4.227-13.7,8.8a4.2,4.2,0,0,1-.174-0.4c-0.154-.5-0.319-1-0.446-1.509a26.522,26.522,0,0,1-.164-9.614c0.345-2.975.9-5.921,1.142-8.91a43.4,43.4,0,0,0-.683-12.344,4.95,4.95,0,0,0-.47-1.575,58.714,58.714,0,0,1-.846,10.96c-0.51,3.044-1.393,6-2.088,9a34.777,34.777,0,0,0-1.216,10.606,1.2,1.2,0,0,0,.271.713,36.231,36.231,0,0,0,8.68,7.729,0.468,0.468,0,0,0,.4.166,0.161,0.161,0,0,0,.02-0.062c-0.046-.169-0.1-0.335-0.141-0.5A8.514,8.514,0,0,1,27.855,64.8,17.811,17.811,0,0,1,33.153,61.25ZM52.719,30.56A5.75,5.75,0,0,0,47.1,24.738a5.66,5.66,0,0,0-5.629,5.673A5.628,5.628,0,1,0,52.719,30.56Z" transform="translate(-0.938 -0.406)"/>
</svg>
